<svg id="Layer_1" data-name="Layer 1" xmlns="http://www.w3.org/2000/svg" viewBox="0 0 32 32"><defs><style>.cls-1{fill:#9e31dd;}</style></defs><title>socialicon</title><path class="cls-1" d="M21.86,16.15a5.1,5.1,0,1,1-10-1.41l-1.27-.28v7.18c0,.36.15.51.51.51H22.39c.36,0,.51-.15.51-.51V14.46l-1.25.28A5.06,5.06,0,0,1,21.86,16.15Z"/><rect class="cls-1" x="19.82" y="9.85" width="3.08" height="3.08" rx="0.51" ry="0.51"/><path class="cls-1" d="M16.75,18.7a2.3,2.3,0,1,0-2.37-2.3A2.34,2.34,0,0,0,16.75,18.7Z"/><path class="cls-1" d="M16,0A16,16,0,1,0,32,16,16,16,0,0,0,16,0Zm9,22.15A2,2,0,0,1,22.9,24.2H10.6a2,2,0,0,1-2-2.05V9.85a2,2,0,0,1,2-2H22.9A2,2,0,0,1,25,9.85Z"/></svg>