<svg id="Layer_1" data-name="Layer 1" xmlns="http://www.w3.org/2000/svg" viewBox="0 0 32 32"><defs><style>.cls-1{fill:#1da1f2;}</style></defs><title>socialicon</title><path class="cls-1" d="M16,0A16,16,0,1,0,32,16,16,16,0,0,0,16,0Zm9,11.24a7.12,7.12,0,0,1-.86,1c-.69.69-.72.76-.72,1.33a12.82,12.82,0,0,1-.84,3.74,10.85,10.85,0,0,1-4.1,4.83,10.4,10.4,0,0,1-8.08.92,9.37,9.37,0,0,1-2.38-1.09,3.45,3.45,0,0,1,1-.1,7,7,0,0,0,3.3-.92l.67-.4-.77-.26a3.78,3.78,0,0,1-2.3-2c-.07-.27-.05-.28.64-.28h.72l-.61-.29A4,4,0,0,1,9,16a4.66,4.66,0,0,1-.44-1.67s.29,0,.58.13c.85.32,1,.24.47-.28a3.6,3.6,0,0,1-.76-3.69l.21-.6.81.81a9.92,9.92,0,0,0,5.86,2.89l.62.08,0-.61a3.57,3.57,0,0,1,2.4-3.59,4.26,4.26,0,0,1,2.16,0,5.32,5.32,0,0,1,1,.55l.61.41.66-.21a7.15,7.15,0,0,0,1.09-.42c.21-.12.39-.18.39-.14A3.63,3.63,0,0,1,23.86,11c-.52.56-.37.61.67.24C25.16,11,25.17,11,25,11.24Z"/></svg>