<svg id="Layer_1" data-name="Layer 1" xmlns="http://www.w3.org/2000/svg" viewBox="0 0 32 32"><defs><style>.cls-1{fill:#0077b5;}</style></defs><title>socialicon</title><path class="cls-1" d="M16,0A16,16,0,1,0,32,16,16,16,0,0,0,16,0ZM12.58,22.7H9.2V12.5h3.38ZM10.89,11.11h0a1.77,1.77,0,1,1,0-3.53,1.77,1.77,0,1,1,0,3.53ZM24.81,22.7H21.42V17.24c0-1.37-.49-2.3-1.72-2.3A1.86,1.86,0,0,0,18,16.18a2.26,2.26,0,0,0-.11.82v5.7H14.46s0-9.24,0-10.2h3.39v1.44a3.37,3.37,0,0,1,3-1.68c2.23,0,3.91,1.46,3.91,4.59Z"/></svg>